<mxfile host="app.diagrams.net" agent="Mozilla/5.0 (Windows NT 10.0; Win64; x64) AppleWebKit/537.36 (KHTML, like Gecko) Chrome/127.0.0.0 Safari/537.36" version="24.7.6">
  <diagram name="Page-1" id="T36DpSXcKag_dREcLGFt">
    <mxGraphModel dx="682" dy="353" grid="1" gridSize="10" guides="1" tooltips="1" connect="1" arrows="1" fold="1" page="1" pageScale="1" pageWidth="850" pageHeight="1100" math="0" shadow="0">
      <root>
        <mxCell id="0" />
        <mxCell id="1" parent="0" />
        <mxCell id="JVEl1Z8R1sdLK35oZjwN-1" value="Open Smart Irrigation Control Web App" style="strokeWidth=2;html=1;shape=mxgraph.flowchart.terminator;whiteSpace=wrap;" vertex="1" parent="1">
          <mxGeometry x="360" y="40" width="100" height="60" as="geometry" />
        </mxCell>
        <mxCell id="JVEl1Z8R1sdLK35oZjwN-2" value="" style="verticalLabelPosition=bottom;verticalAlign=top;html=1;shape=process;whiteSpace=wrap;rounded=1;size=0.14;arcSize=6;" vertex="1" parent="1">
          <mxGeometry x="310" y="130" width="200" height="60" as="geometry" />
        </mxCell>
        <mxCell id="JVEl1Z8R1sdLK35oZjwN-3" value="" style="endArrow=classic;html=1;rounded=0;exitX=0.5;exitY=1;exitDx=0;exitDy=0;exitPerimeter=0;entryX=0.5;entryY=0;entryDx=0;entryDy=0;" edge="1" parent="1" source="JVEl1Z8R1sdLK35oZjwN-1" target="JVEl1Z8R1sdLK35oZjwN-2">
          <mxGeometry width="50" height="50" relative="1" as="geometry">
            <mxPoint x="400" y="130" as="sourcePoint" />
            <mxPoint x="460" y="120" as="targetPoint" />
          </mxGeometry>
        </mxCell>
        <mxCell id="JVEl1Z8R1sdLK35oZjwN-4" value="index.html&lt;div&gt;Display Main Menu&lt;/div&gt;&lt;div&gt;return menu option&lt;/div&gt;" style="text;html=1;align=center;verticalAlign=middle;whiteSpace=wrap;rounded=0;" vertex="1" parent="1">
          <mxGeometry x="350" y="145" width="120" height="30" as="geometry" />
        </mxCell>
        <mxCell id="JVEl1Z8R1sdLK35oZjwN-5" value="" style="verticalLabelPosition=bottom;verticalAlign=top;html=1;shape=process;whiteSpace=wrap;rounded=1;size=0.14;arcSize=6;" vertex="1" parent="1">
          <mxGeometry x="590" y="400" width="100" height="60" as="geometry" />
        </mxCell>
        <mxCell id="JVEl1Z8R1sdLK35oZjwN-6" value="Load Sensor Data" style="text;html=1;align=center;verticalAlign=middle;whiteSpace=wrap;rounded=0;" vertex="1" parent="1">
          <mxGeometry x="610" y="415" width="60" height="30" as="geometry" />
        </mxCell>
        <mxCell id="JVEl1Z8R1sdLK35oZjwN-8" value="Manual Mode&lt;div&gt;selected&lt;/div&gt;" style="rhombus;whiteSpace=wrap;html=1;" vertex="1" parent="1">
          <mxGeometry x="320" y="210" width="180" height="80" as="geometry" />
        </mxCell>
        <mxCell id="JVEl1Z8R1sdLK35oZjwN-10" value="Smart Mode&lt;div&gt;selected&lt;/div&gt;" style="rhombus;whiteSpace=wrap;html=1;" vertex="1" parent="1">
          <mxGeometry x="550" y="290" width="180" height="80" as="geometry" />
        </mxCell>
        <mxCell id="JVEl1Z8R1sdLK35oZjwN-11" value="" style="endArrow=classic;html=1;rounded=0;exitX=1;exitY=0.5;exitDx=0;exitDy=0;entryX=0.5;entryY=0;entryDx=0;entryDy=0;" edge="1" parent="1" source="JVEl1Z8R1sdLK35oZjwN-8" target="JVEl1Z8R1sdLK35oZjwN-10">
          <mxGeometry width="50" height="50" relative="1" as="geometry">
            <mxPoint x="400" y="270" as="sourcePoint" />
            <mxPoint x="580" y="280" as="targetPoint" />
            <Array as="points">
              <mxPoint x="640" y="250" />
            </Array>
          </mxGeometry>
        </mxCell>
        <mxCell id="JVEl1Z8R1sdLK35oZjwN-12" value="No" style="edgeLabel;html=1;align=center;verticalAlign=middle;resizable=0;points=[];" vertex="1" connectable="0" parent="JVEl1Z8R1sdLK35oZjwN-11">
          <mxGeometry x="-0.5712" relative="1" as="geometry">
            <mxPoint as="offset" />
          </mxGeometry>
        </mxCell>
        <mxCell id="JVEl1Z8R1sdLK35oZjwN-13" value="" style="verticalLabelPosition=bottom;verticalAlign=top;html=1;shape=process;whiteSpace=wrap;rounded=1;size=0.14;arcSize=6;" vertex="1" parent="1">
          <mxGeometry x="280" y="320" width="260" height="60" as="geometry" />
        </mxCell>
        <mxCell id="JVEl1Z8R1sdLK35oZjwN-14" value="Enter watering cycle&amp;nbsp;&lt;div&gt;(days, start time, end time)&lt;/div&gt;" style="text;html=1;align=center;verticalAlign=middle;whiteSpace=wrap;rounded=0;" vertex="1" parent="1">
          <mxGeometry x="330" y="335" width="170" height="30" as="geometry" />
        </mxCell>
        <mxCell id="JVEl1Z8R1sdLK35oZjwN-15" value="" style="endArrow=classic;html=1;rounded=0;entryX=0.5;entryY=0;entryDx=0;entryDy=0;" edge="1" parent="1" target="JVEl1Z8R1sdLK35oZjwN-13">
          <mxGeometry width="50" height="50" relative="1" as="geometry">
            <mxPoint x="410" y="290" as="sourcePoint" />
            <mxPoint x="450" y="250" as="targetPoint" />
          </mxGeometry>
        </mxCell>
        <mxCell id="JVEl1Z8R1sdLK35oZjwN-16" value="Yes" style="edgeLabel;html=1;align=center;verticalAlign=middle;resizable=0;points=[];" vertex="1" connectable="0" parent="JVEl1Z8R1sdLK35oZjwN-15">
          <mxGeometry x="-0.4133" relative="1" as="geometry">
            <mxPoint as="offset" />
          </mxGeometry>
        </mxCell>
        <mxCell id="JVEl1Z8R1sdLK35oZjwN-17" value="" style="verticalLabelPosition=bottom;verticalAlign=top;html=1;shape=process;whiteSpace=wrap;rounded=1;size=0.14;arcSize=6;" vertex="1" parent="1">
          <mxGeometry x="590" y="500" width="100" height="60" as="geometry" />
        </mxCell>
        <mxCell id="JVEl1Z8R1sdLK35oZjwN-18" value="Load Weather Forecast" style="text;html=1;align=center;verticalAlign=middle;whiteSpace=wrap;rounded=0;" vertex="1" parent="1">
          <mxGeometry x="610" y="515" width="60" height="30" as="geometry" />
        </mxCell>
        <mxCell id="JVEl1Z8R1sdLK35oZjwN-19" value="sensorReading &amp;lt; threshold" style="strokeWidth=2;html=1;shape=mxgraph.flowchart.decision;whiteSpace=wrap;" vertex="1" parent="1">
          <mxGeometry x="540" y="590" width="200" height="100" as="geometry" />
        </mxCell>
        <mxCell id="JVEl1Z8R1sdLK35oZjwN-20" value="" style="verticalLabelPosition=bottom;verticalAlign=top;html=1;shape=process;whiteSpace=wrap;rounded=1;size=0.14;arcSize=6;" vertex="1" parent="1">
          <mxGeometry x="420" y="820" width="100" height="60" as="geometry" />
        </mxCell>
        <mxCell id="JVEl1Z8R1sdLK35oZjwN-22" value="Switch on Valve" style="text;html=1;align=center;verticalAlign=middle;whiteSpace=wrap;rounded=0;" vertex="1" parent="1">
          <mxGeometry x="440" y="830" width="60" height="30" as="geometry" />
        </mxCell>
        <mxCell id="JVEl1Z8R1sdLK35oZjwN-24" value="rainProbability &amp;gt; 70%" style="strokeWidth=2;html=1;shape=mxgraph.flowchart.decision;whiteSpace=wrap;" vertex="1" parent="1">
          <mxGeometry x="370" y="670" width="200" height="100" as="geometry" />
        </mxCell>
        <mxCell id="JVEl1Z8R1sdLK35oZjwN-25" value="" style="endArrow=classic;html=1;rounded=0;exitX=0.5;exitY=1;exitDx=0;exitDy=0;exitPerimeter=0;entryX=0.5;entryY=0;entryDx=0;entryDy=0;" edge="1" parent="1" source="JVEl1Z8R1sdLK35oZjwN-24" target="JVEl1Z8R1sdLK35oZjwN-20">
          <mxGeometry width="50" height="50" relative="1" as="geometry">
            <mxPoint x="520" y="760" as="sourcePoint" />
            <mxPoint x="570" y="710" as="targetPoint" />
          </mxGeometry>
        </mxCell>
        <mxCell id="JVEl1Z8R1sdLK35oZjwN-26" value="No" style="edgeLabel;html=1;align=center;verticalAlign=middle;resizable=0;points=[];" vertex="1" connectable="0" parent="JVEl1Z8R1sdLK35oZjwN-25">
          <mxGeometry x="-0.2286" relative="1" as="geometry">
            <mxPoint as="offset" />
          </mxGeometry>
        </mxCell>
        <mxCell id="JVEl1Z8R1sdLK35oZjwN-27" value="" style="endArrow=classic;html=1;rounded=0;exitX=0;exitY=0.5;exitDx=0;exitDy=0;exitPerimeter=0;entryX=0.5;entryY=0;entryDx=0;entryDy=0;entryPerimeter=0;" edge="1" parent="1" source="JVEl1Z8R1sdLK35oZjwN-19" target="JVEl1Z8R1sdLK35oZjwN-24">
          <mxGeometry width="50" height="50" relative="1" as="geometry">
            <mxPoint x="520" y="760" as="sourcePoint" />
            <mxPoint x="570" y="710" as="targetPoint" />
            <Array as="points">
              <mxPoint x="470" y="640" />
            </Array>
          </mxGeometry>
        </mxCell>
        <mxCell id="JVEl1Z8R1sdLK35oZjwN-28" value="Yes" style="edgeLabel;html=1;align=center;verticalAlign=middle;resizable=0;points=[];" vertex="1" connectable="0" parent="JVEl1Z8R1sdLK35oZjwN-27">
          <mxGeometry x="-0.0343" y="1" relative="1" as="geometry">
            <mxPoint as="offset" />
          </mxGeometry>
        </mxCell>
      </root>
    </mxGraphModel>
  </diagram>
</mxfile>
